<svg width="24" height="24" viewBox="0 0 24 24" fill="none" xmlns="http://www.w3.org/2000/svg">
<g clip-path="url(#clip0_2402_740)">
<path d="M14.7198 17.84C14.3998 18.11 13.8898 18.37 13.4898 18.5C12.1498 18.83 11.0798 18.16 10.8698 18.04C10.6598 17.93 10.0898 17.66 10.0898 17.66C10.0898 17.66 10.4398 17.55 10.4998 17.53C11.8398 16.99 12.3898 16.29 12.5898 15.42C12.7898 14.58 12.4298 13.86 12.2798 13.03C12.1598 12.34 12.1698 11.75 12.3998 11.13C12.4198 11.08 12.5198 10.7 12.5198 10.7C12.5198 10.7 12.6298 11.05 12.6498 11.11C13.3598 12.62 15.3698 13.29 15.7198 14.95C15.7498 15.1 15.7698 15.25 15.7698 15.41C15.7998 16.3 15.3998 17.26 14.7198 17.84ZM12.3998 4.34C12.2798 4.42 12.1798 4.49 12.0898 4.56C9.09982 6.87 9.17982 10.49 9.77982 13.11L9.78982 13.14L9.79983 13.17C9.85983 13.52 9.74983 13.87 9.51983 14.13C9.27983 14.39 8.93982 14.54 8.56982 14.54C8.12982 14.54 7.71982 14.34 7.34982 13.94C6.67982 13.21 6.17982 12.37 5.84982 11.48C5.48982 12.25 5.09982 13.46 5.17982 14.67C5.21982 15.18 5.29982 15.67 5.42982 16.1C5.60982 16.7 5.85982 17.26 6.17982 17.75C7.22982 19.41 9.05982 20.57 10.9598 20.8C11.3798 20.85 11.8098 20.88 12.2198 20.88C13.5598 20.88 15.4698 20.61 16.9598 19.31C18.7298 17.75 19.3098 15.32 18.3998 13.25C18.3598 13.15 18.3398 13.11 18.3098 13.06L18.2698 12.98C18.0598 12.56 17.7998 12.17 17.5198 11.84C17.2798 11.54 17.0398 11.28 16.7298 11.01C16.4298 10.74 16.0898 10.5 15.7298 10.24C15.2698 9.91 14.7998 9.57 14.3498 9.15C12.9798 7.83 12.2998 6.11 12.3998 4.34ZM14.4098 2C14.4098 2 14.2098 2.2 13.8498 2.99C13.1898 4.91 13.6998 6.94 15.1898 8.38C15.9198 9.07 16.7998 9.55 17.5498 10.22C17.8698 10.51 18.1698 10.81 18.4398 11.15C18.7998 11.57 19.0998 12.04 19.3498 12.53C19.3998 12.63 19.4498 12.73 19.4898 12.83C20.6098 15.38 19.8498 18.3 17.7598 20.14C16.2298 21.47 14.2198 22 12.2198 22C11.7498 22 11.2698 21.97 10.8098 21.91C8.51983 21.63 6.38982 20.25 5.17982 18.34C4.78982 17.74 4.49983 17.08 4.29983 16.41C4.13983 15.87 4.04983 15.31 4.00983 14.74C3.88983 12.86 4.67983 11.11 5.08983 10.43C5.49983 9.74 6.63982 8.25 6.63982 8.25C6.63982 8.25 6.63983 8.28 6.62983 8.34C6.40983 10.11 6.99983 11.88 8.21983 13.22C8.36983 13.39 8.48983 13.44 8.55983 13.44C8.61983 13.44 8.64983 13.4 8.63983 13.35C7.78983 9.59 8.36983 6 11.3498 3.7C11.9398 3.24 12.8598 2.76 13.3298 2.52C13.7998 2.28 14.4098 2 14.4098 2Z" fill="#030303"/>
</g>
<defs>
<clipPath id="clip0_2402_740">
<rect width="24" height="24" fill="white"/>
</clipPath>
</defs>
</svg>
